<svg xmlns="http://www.w3.org/2000/svg" xmlns:xlink="http://www.w3.org/1999/xlink" width="1366" zoomAndPan="magnify" viewBox="0 0 1024.5 576" height="768" preserveAspectRatio="xMidYMid meet" version="1.0"><defs><g/><clipPath id="73552befe9"><rect x="0" width="896" y="0" height="289"/></clipPath><clipPath id="9c4e982f42"><rect x="0" width="157" y="0" height="94"/></clipPath></defs><g transform="matrix(1, 0, 0, 1, 43, 142)"><g clip-path="url(#73552befe9)"><g fill="#000000" fill-opacity="1"><g transform="translate(0.698416, 231.912455)"><g><path d="M 106.25 0 L 39.8125 -144.65625 L 39.8125 -29.796875 C 39.8125 -19.234375 40.953125 -12.640625 43.234375 -10.015625 C 46.359375 -6.460938 51.300781 -4.6875 58.0625 -4.6875 L 64.15625 -4.6875 L 64.15625 0 L 4.3125 0 L 4.3125 -4.6875 L 10.390625 -4.6875 C 17.660156 -4.6875 22.816406 -6.882812 25.859375 -11.28125 C 27.722656 -13.988281 28.65625 -20.160156 28.65625 -29.796875 L 28.65625 -142.125 C 28.65625 -149.726562 27.8125 -155.222656 26.125 -158.609375 C 24.9375 -161.054688 22.753906 -163.101562 19.578125 -164.75 C 16.410156 -166.40625 11.320312 -167.234375 4.3125 -167.234375 L 4.3125 -171.921875 L 53 -171.921875 L 115.375 -37.40625 L 176.734375 -171.921875 L 225.421875 -171.921875 L 225.421875 -167.234375 L 219.46875 -167.234375 C 212.113281 -167.234375 206.914062 -165.035156 203.875 -160.640625 C 202.007812 -157.929688 201.078125 -151.757812 201.078125 -142.125 L 201.078125 -29.796875 C 201.078125 -19.234375 202.257812 -12.640625 204.625 -10.015625 C 207.757812 -6.460938 212.707031 -4.6875 219.46875 -4.6875 L 225.421875 -4.6875 L 225.421875 0 L 152.390625 0 L 152.390625 -4.6875 L 158.484375 -4.6875 C 165.835938 -4.6875 170.992188 -6.882812 173.953125 -11.28125 C 175.804688 -13.988281 176.734375 -20.160156 176.734375 -29.796875 L 176.734375 -144.65625 L 110.4375 0 Z M 106.25 0 "/></g></g><g transform="translate(231.580926, 231.912455)"><g><path d="M 54.265625 -162.53125 L 54.265625 -94.578125 L 92.046875 -94.578125 C 101.847656 -94.578125 108.398438 -96.054688 111.703125 -99.015625 C 116.097656 -102.898438 118.546875 -109.75 119.046875 -119.5625 L 123.75 -119.5625 L 123.75 -59.71875 L 119.046875 -59.71875 C 117.867188 -68.082031 116.6875 -73.445312 115.5 -75.8125 C 113.976562 -78.769531 111.484375 -81.09375 108.015625 -82.78125 C 104.554688 -84.476562 99.234375 -85.328125 92.046875 -85.328125 L 54.265625 -85.328125 L 54.265625 -28.65625 C 54.265625 -21.050781 54.601562 -16.421875 55.28125 -14.765625 C 55.957031 -13.117188 57.140625 -11.804688 58.828125 -10.828125 C 60.515625 -9.859375 63.726562 -9.375 68.46875 -9.375 L 97.625 -9.375 C 107.34375 -9.375 114.398438 -10.050781 118.796875 -11.40625 C 123.191406 -12.757812 127.414062 -15.421875 131.46875 -19.390625 C 136.71875 -24.640625 142.085938 -32.546875 147.578125 -43.109375 L 152.65625 -43.109375 L 137.8125 0 L 5.328125 0 L 5.328125 -4.6875 L 11.40625 -4.6875 C 15.46875 -4.6875 19.316406 -5.660156 22.953125 -7.609375 C 25.648438 -8.960938 27.484375 -10.988281 28.453125 -13.6875 C 29.429688 -16.394531 29.921875 -21.929688 29.921875 -30.296875 L 29.921875 -142 C 29.921875 -152.90625 28.820312 -159.625 26.625 -162.15625 C 23.582031 -165.539062 18.507812 -167.234375 11.40625 -167.234375 L 5.328125 -167.234375 L 5.328125 -171.921875 L 137.8125 -171.921875 L 139.71875 -134.265625 L 134.765625 -134.265625 C 132.992188 -143.304688 131.03125 -149.515625 128.875 -152.890625 C 126.71875 -156.273438 123.53125 -158.859375 119.3125 -160.640625 C 115.925781 -161.898438 109.960938 -162.53125 101.421875 -162.53125 Z M 54.265625 -162.53125 "/></g></g></g><g fill="#00b050" fill-opacity="1"><g transform="translate(390.201084, 231.912455)"><g><path d="M 109.671875 -100.796875 L 157.09375 -30.421875 C 164.945312 -18.765625 170.539062 -11.6875 173.875 -9.1875 C 177.21875 -6.695312 181.171875 -5.195312 185.734375 -4.6875 L 185.734375 0 L 101.9375 0 L 101.9375 -4.6875 C 108.613281 -5.195312 112.921875 -6.210938 114.859375 -7.734375 C 116.804688 -9.253906 117.78125 -11.113281 117.78125 -13.3125 C 117.78125 -14.832031 117.484375 -16.1875 116.890625 -17.375 C 115.710938 -19.90625 112.753906 -24.632812 108.015625 -31.5625 L 82.921875 -68.71875 L 56.671875 -36.640625 C 48.804688 -26.921875 44.875 -20.328125 44.875 -16.859375 C 44.875 -14.410156 45.890625 -12.128906 47.921875 -10.015625 C 49.953125 -7.898438 52.953125 -6.378906 56.921875 -5.453125 C 58.703125 -4.941406 62.335938 -4.6875 67.828125 -4.6875 L 67.828125 0 L 1.78125 0 L 1.78125 -4.6875 C 9.300781 -5.789062 15.21875 -7.820312 19.53125 -10.78125 C 25.1875 -14.664062 33.085938 -22.78125 43.234375 -35.125 L 77.34375 -76.703125 L 33.59375 -140.984375 C 26.414062 -151.546875 22.316406 -157.421875 21.296875 -158.609375 C 19.015625 -161.398438 16.773438 -163.382812 14.578125 -164.5625 C 12.378906 -165.75 9.335938 -166.640625 5.453125 -167.234375 L 5.453125 -171.921875 L 90.78125 -171.921875 L 90.78125 -167.234375 L 86.46875 -167.234375 C 81.5625 -167.234375 78.132812 -166.445312 76.1875 -164.875 C 74.25 -163.3125 73.28125 -161.347656 73.28125 -158.984375 C 73.28125 -157.128906 73.578125 -155.523438 74.171875 -154.171875 L 82.921875 -140.984375 L 104.21875 -108.53125 L 122.34375 -130.71875 C 131.644531 -142.125 136.296875 -150.109375 136.296875 -154.671875 C 136.296875 -156.953125 135.640625 -159.066406 134.328125 -161.015625 C 133.015625 -162.960938 131.132812 -164.484375 128.6875 -165.578125 C 126.238281 -166.679688 122.4375 -167.234375 117.28125 -167.234375 L 117.28125 -171.921875 L 180.546875 -171.921875 L 180.546875 -167.234375 C 175.554688 -167.148438 171.539062 -166.535156 168.5 -165.390625 C 165.457031 -164.253906 162.203125 -162.117188 158.734375 -158.984375 C 156.535156 -156.960938 151.039062 -150.664062 142.25 -140.09375 Z M 109.671875 -100.796875 "/></g></g></g><g fill="#000000" fill-opacity="1"><g transform="translate(577.727864, 231.912455)"><g><path d="M 118.796875 -57.5625 L 52.234375 -57.5625 L 40.578125 -30.421875 C 37.703125 -23.742188 36.265625 -18.757812 36.265625 -15.46875 C 36.265625 -12.84375 37.507812 -10.535156 40 -8.546875 C 42.488281 -6.566406 47.878906 -5.28125 56.171875 -4.6875 L 56.171875 0 L 2.03125 0 L 2.03125 -4.6875 C 9.21875 -5.957031 13.863281 -7.609375 15.96875 -9.640625 C 20.28125 -13.691406 25.054688 -21.929688 30.296875 -34.359375 L 90.78125 -175.84375 L 95.21875 -175.84375 L 155.0625 -32.84375 C 159.875 -21.34375 164.242188 -13.878906 168.171875 -10.453125 C 172.109375 -7.035156 177.582031 -5.113281 184.59375 -4.6875 L 184.59375 0 L 116.765625 0 L 116.765625 -4.6875 C 123.609375 -5.03125 128.234375 -6.171875 130.640625 -8.109375 C 133.054688 -10.054688 134.265625 -12.425781 134.265625 -15.21875 C 134.265625 -18.9375 132.570312 -24.8125 129.1875 -32.84375 Z M 115.25 -66.9375 L 86.09375 -136.421875 L 56.171875 -66.9375 Z M 115.25 -66.9375 "/></g></g></g><g fill="#000000" fill-opacity="1"><g transform="translate(765.254645, 231.912455)"><g/></g></g><g fill="#000000" fill-opacity="1"><g transform="translate(830.170536, 231.912455)"><g/></g></g></g></g><g transform="matrix(1, 0, 0, 1, 824, 297)"><g clip-path="url(#9c4e982f42)"><g fill="#000000" fill-opacity="1"><g transform="translate(1.256405, 74.106479)"><g><path d="M 38.578125 -56.96875 L 38.578125 -37.703125 L 37.046875 -37.703125 C 36.554688 -41.398438 35.671875 -44.34375 34.390625 -46.53125 C 33.117188 -48.726562 31.304688 -50.46875 28.953125 -51.75 C 26.597656 -53.039062 24.160156 -53.6875 21.640625 -53.6875 C 18.796875 -53.6875 16.441406 -52.816406 14.578125 -51.078125 C 12.710938 -49.335938 11.78125 -47.359375 11.78125 -45.140625 C 11.78125 -43.441406 12.375 -41.894531 13.5625 -40.5 C 15.257812 -38.445312 19.296875 -35.707031 25.671875 -32.28125 C 30.878906 -29.488281 34.429688 -27.347656 36.328125 -25.859375 C 38.234375 -24.367188 39.695312 -22.609375 40.71875 -20.578125 C 41.75 -18.554688 42.265625 -16.4375 42.265625 -14.21875 C 42.265625 -10 40.628906 -6.363281 37.359375 -3.3125 C 34.085938 -0.257812 29.878906 1.265625 24.734375 1.265625 C 23.109375 1.265625 21.585938 1.144531 20.171875 0.90625 C 19.316406 0.769531 17.554688 0.269531 14.890625 -0.59375 C 12.222656 -1.457031 10.53125 -1.890625 9.8125 -1.890625 C 9.132812 -1.890625 8.59375 -1.679688 8.1875 -1.265625 C 7.789062 -0.859375 7.5 -0.015625 7.3125 1.265625 L 5.796875 1.265625 L 5.796875 -17.828125 L 7.3125 -17.828125 C 8.019531 -13.828125 8.976562 -10.832031 10.1875 -8.84375 C 11.394531 -6.863281 13.234375 -5.21875 15.703125 -3.90625 C 18.179688 -2.59375 20.898438 -1.9375 23.859375 -1.9375 C 27.285156 -1.9375 29.988281 -2.835938 31.96875 -4.640625 C 33.957031 -6.453125 34.953125 -8.585938 34.953125 -11.046875 C 34.953125 -12.421875 34.578125 -13.804688 33.828125 -15.203125 C 33.078125 -16.597656 31.90625 -17.894531 30.3125 -19.09375 C 29.25 -19.914062 26.332031 -21.660156 21.5625 -24.328125 C 16.800781 -27.003906 13.410156 -29.132812 11.390625 -30.71875 C 9.378906 -32.3125 7.851562 -34.066406 6.8125 -35.984375 C 5.78125 -37.898438 5.265625 -40.007812 5.265625 -42.3125 C 5.265625 -46.3125 6.796875 -49.753906 9.859375 -52.640625 C 12.921875 -55.523438 16.820312 -56.96875 21.5625 -56.96875 C 24.519531 -56.96875 27.65625 -56.242188 30.96875 -54.796875 C 32.5 -54.109375 33.582031 -53.765625 34.21875 -53.765625 C 34.925781 -53.765625 35.503906 -53.976562 35.953125 -54.40625 C 36.410156 -54.832031 36.773438 -55.6875 37.046875 -56.96875 Z M 38.578125 -56.96875 "/></g></g></g><g fill="#000000" fill-opacity="1"><g transform="translate(48.034117, 74.106479)"><g><path d="M 56.84375 0 L 41.984375 0 L 23.125 -26.046875 C 21.726562 -25.984375 20.59375 -25.953125 19.71875 -25.953125 C 19.363281 -25.953125 18.976562 -25.957031 18.5625 -25.96875 C 18.15625 -25.988281 17.734375 -26.015625 17.296875 -26.046875 L 17.296875 -9.859375 C 17.296875 -6.347656 17.675781 -4.171875 18.4375 -3.328125 C 19.476562 -2.117188 21.039062 -1.515625 23.125 -1.515625 L 25.296875 -1.515625 L 25.296875 0 L 1.4375 0 L 1.4375 -1.515625 L 3.53125 -1.515625 C 5.882812 -1.515625 7.566406 -2.28125 8.578125 -3.8125 C 9.160156 -4.664062 9.453125 -6.679688 9.453125 -9.859375 L 9.453125 -45.84375 C 9.453125 -49.34375 9.066406 -51.519531 8.296875 -52.375 C 7.234375 -53.582031 5.644531 -54.1875 3.53125 -54.1875 L 1.4375 -54.1875 L 1.4375 -55.703125 L 21.734375 -55.703125 C 27.648438 -55.703125 32.007812 -55.269531 34.8125 -54.40625 C 37.613281 -53.539062 39.992188 -51.953125 41.953125 -49.640625 C 43.910156 -47.328125 44.890625 -44.566406 44.890625 -41.359375 C 44.890625 -37.941406 43.773438 -34.972656 41.546875 -32.453125 C 39.316406 -29.929688 35.859375 -28.148438 31.171875 -27.109375 L 42.671875 -11.125 C 45.304688 -7.457031 47.566406 -5.019531 49.453125 -3.8125 C 51.347656 -2.613281 53.8125 -1.847656 56.84375 -1.515625 Z M 17.296875 -28.625 C 17.816406 -28.625 18.265625 -28.617188 18.640625 -28.609375 C 19.023438 -28.597656 19.34375 -28.59375 19.59375 -28.59375 C 24.90625 -28.59375 28.910156 -29.738281 31.609375 -32.03125 C 34.304688 -34.332031 35.65625 -37.265625 35.65625 -40.828125 C 35.65625 -44.304688 34.566406 -47.132812 32.390625 -49.3125 C 30.210938 -51.488281 27.332031 -52.578125 23.75 -52.578125 C 22.15625 -52.578125 20.003906 -52.316406 17.296875 -51.796875 Z M 17.296875 -28.625 "/></g></g></g><g fill="#000000" fill-opacity="1"><g transform="translate(104.1345, 74.106479)"><g><path d="M 48.21875 -15.40625 L 49.578125 -15.109375 L 44.8125 0 L 1.6875 0 L 1.6875 -1.515625 L 3.78125 -1.515625 C 6.132812 -1.515625 7.816406 -2.28125 8.828125 -3.8125 C 9.398438 -4.695312 9.6875 -6.726562 9.6875 -9.90625 L 9.6875 -45.84375 C 9.6875 -49.320312 9.304688 -51.5 8.546875 -52.375 C 7.472656 -53.582031 5.882812 -54.1875 3.78125 -54.1875 L 1.6875 -54.1875 L 1.6875 -55.703125 L 26.90625 -55.703125 L 26.90625 -54.1875 C 23.945312 -54.207031 21.867188 -53.929688 20.671875 -53.359375 C 19.484375 -52.785156 18.671875 -52.054688 18.234375 -51.171875 C 17.796875 -50.296875 17.578125 -48.203125 17.578125 -44.890625 L 17.578125 -9.90625 C 17.578125 -7.625 17.796875 -6.0625 18.234375 -5.21875 C 18.566406 -4.644531 19.070312 -4.21875 19.75 -3.9375 C 20.4375 -3.664062 22.578125 -3.53125 26.171875 -3.53125 L 30.234375 -3.53125 C 34.503906 -3.53125 37.5 -3.84375 39.21875 -4.46875 C 40.945312 -5.101562 42.523438 -6.222656 43.953125 -7.828125 C 45.378906 -9.429688 46.800781 -11.957031 48.21875 -15.40625 Z M 48.21875 -15.40625 "/></g></g></g></g></g></svg>